<svg width="934" height="318" viewBox="0 0 934 318" fill="none" xmlns="http://www.w3.org/2000/svg">
<path d="M914.182 108.72C915.528 120.693 909.581 136.254 889.88 154.956C870.462 173.39 840.273 192.236 800.634 210.01C721.563 245.465 608.936 274.866 481.637 289.18C354.338 303.493 237.995 299.836 153.024 282.826C110.428 274.298 76.8077 262.627 53.7807 248.965C30.419 235.105 21.1641 221.254 19.8179 209.28C18.4716 197.307 24.4193 181.745 44.1199 163.043C63.5381 144.61 93.7268 125.764 133.366 107.99C212.437 72.5347 325.064 43.1334 452.363 28.8201C579.662 14.5069 696.005 18.1633 780.976 35.1737C823.572 43.7012 857.192 55.3727 880.219 69.0342C903.581 82.8943 912.836 96.7461 914.182 108.72Z" stroke="#FF613E" stroke-width="38"/>
</svg>
