<svg width="220" height="204" viewBox="0 0 220 204" fill="none" xmlns="http://www.w3.org/2000/svg">
<path fill-rule="evenodd" clip-rule="evenodd" d="M79.2608 38.2421L79.242 38.2819C74.027 36.7015 68.6281 35.4957 62.9441 34.7573C58.5145 34.182 54.221 34.0762 50.4113 34.044C49.3821 34.0353 48.4046 34.0315 47.4631 34.028L47.4569 34.0279C44.7229 34.0176 42.2927 34.0083 39.7831 33.8818C35.1084 33.6461 29.5176 34.5124 24.5435 36.1228C19.9189 37.6201 13.4117 40.5267 9.26448 46.103C-5.12035 65.4447 -0.392689 89.8859 16.5494 104.347C24.2867 110.952 33.2025 115.805 41.6549 119.807C45.6206 121.685 49.6257 123.439 53.434 125.097L53.3524 125.306L53.2861 125.475L53.2377 125.599C53.1574 125.805 53.0836 125.994 53.015 126.17L53.0126 126.176C52.8515 126.59 52.7187 126.931 52.5961 127.24C52.4928 127.499 52.4343 127.641 52.4105 127.698L52.4 127.723L52.3977 127.729C47.7048 137.683 47.0201 148.226 46.4976 156.272L46.497 156.28C46.4585 156.874 46.4208 157.454 46.3825 158.019C45.5018 171 51.045 181.454 55.8938 189.233C59.1928 194.526 63.9585 197.387 67.8532 199.042C71.2223 200.474 74.8318 201.347 77.2028 201.921C77.4476 201.98 77.6792 202.036 77.896 202.089C88.7512 204.749 99.2689 202.206 107.815 198.034C116.385 193.852 123.883 187.62 129.421 181.258C134.109 175.872 138.755 167.569 140.344 159.686C150.365 164.222 159.796 166.42 170.16 167.734C177.421 168.654 185.994 168.415 194.005 165.794C202.165 163.124 210.393 157.709 214.966 148.048C215.138 147.685 215.336 147.284 215.553 146.847L215.553 146.846L215.553 146.846L215.553 146.846L215.553 146.845L215.553 146.845C217.524 142.862 220.979 135.881 219.502 126.93C218.151 118.738 214.703 111.609 209.445 105.441C202.05 96.7647 191.844 92.225 184.624 89.0136C184.298 88.8683 183.977 88.7258 183.663 88.5856C177.538 85.8512 171.157 85.272 166.724 84.9261C167.355 82.9504 167.886 81.0243 168.357 79.2114C168.866 77.2487 169.268 75.5865 169.64 74.0438L169.641 74.0419C170.154 71.9191 170.612 70.0224 171.221 67.8801C173.083 61.3266 175.24 52.7799 175.63 43.9945C176.021 35.1972 174.696 24.9629 168.381 16.048C165.171 11.5162 160.48 9.06601 157.73 7.77493C156.18 7.04729 154.643 6.42662 153.451 5.94843L153.209 5.85108C152.026 5.37664 151.269 5.07309 150.639 4.78435C144.002 1.74548 137.882 0.714634 131.913 0.181496C126.818 -0.273581 120.983 0.408269 115.703 1.90707C110.595 3.35698 104.413 6.02193 99.8821 10.7527C98.6733 12.0148 97.4161 13.2379 95.9855 14.6298L95.9851 14.6301L95.9844 14.6308L95.9838 14.6313L95.9832 14.632L95.8304 14.7805C94.3916 16.1805 92.7692 17.762 91.1856 19.4439C87.9787 22.8498 84.5628 27.0403 81.99 32.476L81.9687 32.5211L81.9474 32.5661L81.926 32.6112L81.9047 32.6562L81.8834 32.7013L81.8621 32.7463L81.8408 32.7914L81.8194 32.8364L81.7981 32.8815L81.7768 32.9265L81.7555 32.9715L81.7341 33.0166L81.7128 33.0616L81.6915 33.1067L81.6702 33.1517L81.6489 33.1968L81.6275 33.2418L81.6062 33.2869L81.5849 33.3319L81.5636 33.377L81.5422 33.422L81.5209 33.4671L81.4996 33.5121L81.4783 33.5572L81.457 33.6022L81.4356 33.6473L81.4143 33.6923L81.393 33.7374L81.3717 33.7824L81.3503 33.8275L81.329 33.8725L81.3077 33.9175L81.2864 33.9626L81.2651 34.0076L81.2437 34.0527L81.2224 34.0977L81.2011 34.1428L81.1798 34.1878L81.1585 34.2329L81.1371 34.2779L81.1158 34.323L81.0945 34.368L81.0732 34.4131L81.0518 34.4581L81.0305 34.5032L81.0092 34.5482L80.9879 34.5933L80.9666 34.6383L80.9452 34.6834L80.9239 34.7284L80.9026 34.7735L80.8813 34.8185L80.8599 34.8635L80.8386 34.9086L80.8173 34.9536L80.796 34.9987L80.7747 35.0437L80.7533 35.0888L80.732 35.1338L80.7107 35.1789L80.6894 35.2239L80.668 35.269L80.6467 35.314L80.6254 35.3591L80.6041 35.4041L80.5828 35.4492L80.5614 35.4942L80.5401 35.5393L80.5188 35.5843L80.4975 35.6294L80.4762 35.6744L80.4548 35.7195L80.4335 35.7645L80.4122 35.8095L80.3909 35.8546L80.3695 35.8996L80.3482 35.9447L80.3269 35.9897L80.3056 36.0348L80.2843 36.0798L80.2629 36.1249L80.2416 36.1699L80.2203 36.215L80.199 36.26L80.1776 36.3051L80.1563 36.3501L80.135 36.3952L80.1137 36.4402L80.0924 36.4853L80.071 36.5303L80.0497 36.5754L80.0284 36.6204L80.0071 36.6655L79.9858 36.7105L79.9644 36.7555L79.9431 36.8006L79.9218 36.8456L79.9005 36.8907L79.8791 36.9357L79.8578 36.9808L79.8365 37.0258L79.8152 37.0709L79.7939 37.1159L79.7725 37.161L79.7512 37.206L79.7299 37.2511L79.7086 37.2961L79.6872 37.3412L79.6659 37.3862L79.6446 37.4313L79.6233 37.4763L79.602 37.5214L79.5806 37.5664L79.5593 37.6115L79.538 37.6565L79.5167 37.7015L79.4953 37.7466L79.474 37.7916L79.4527 37.8367L79.4314 37.8817L79.4101 37.9268L79.3887 37.9718L79.3674 38.0169L79.3461 38.0619L79.3248 38.107L79.3035 38.152L79.2821 38.1971L79.2608 38.2421ZM69.2002 86.096C69.1926 86.1556 69.1949 86.1235 69.2092 86.0246L69.2002 86.096ZM97.4509 126.393C111.252 132.926 127.737 127.033 134.269 113.231C140.802 99.4298 134.909 82.9457 121.107 76.4132C107.306 69.8807 90.8217 75.7734 84.2892 89.575C77.7567 103.377 83.6494 119.861 97.4509 126.393Z" fill="#FF6340"/>
</svg>
